# xmcd CD database file
#
# Track frame offsets:
#	150
#	4818
#	15160
#	28413
#	41672
#	72928
#	87792
#	101894
#	116139
#	131334
#	159906
#	180071
#	202670
#	217693
#	241749
#	260919
#	270622
#	283642
#	300255
#
# Disc length: 4289 seconds
#
# Revision: 1
# Processed by: cddbd v1.5.2PL0 Copyright (c) Steve Scherf et al.
# Submitted via: CDex 1.70beta2
#
DISCID=ee10bf13
DTITLE=ERIC CLAPTON  - Rarities On Compact Disc
DYEAR=1994
DGENRE=Blues
TTITLE0=Falstaff Beer(1967  Radio Stop)
TTITLE1=I Want To Know(Feat. Steve Winwood And Jack Bruce 1966)
TTITLE2=I Feel Free(Live 1966)
TTITLE3=Strange Brew(Live 1967)
TTITLE4=Sunshine Of Your Love(Live 1968)
TTITLE5=Outside Woman Blues(Live)
TTITLE6=Tales Of Brave Ulysses(Live)
TTITLE7=Born Under A Bad Sign(Live)
TTITLE8=Change Of Address(Blind Fait Instrumental)
TTITLE9=Little Wing(Live With Derek - The Dominos)
TTITLE10=Evil(Outare From Derek - The Dominos)
TTITLE11=Have You Ever Loved A Woman(Derek - The Dominos)
TTITLE12=After Midnight(Rare Alternate 1970 Version)
TTITLE13=I Shot The Sheriff(1974 Live)
TTITLE14=Cocaine(1986 Live)
TTITLE15=Knockin' On Heavens Door(Feat. Clapton On Lead Vocals)
TTITLE16=Sugar Sweet(With Fredie King)
TTITLE17=Rockin' Daddy(With Howlin Wolf)
TTITLE18=Why Does Got To Be So Sad(With Buckwheat Zydeco)
EXTD=YEAR: 1994
EXTT0=
EXTT1=
EXTT2=
EXTT3=
EXTT4=
EXTT5=
EXTT6=
EXTT7=
EXTT8=
EXTT9=
EXTT10=
EXTT11=
EXTT12=
EXTT13=
EXTT14=
EXTT15=
EXTT16=
EXTT17=
EXTT18=
PLAYORDER=
